<svg width="960" height="560" viewBox="0 0 960 560" fill="none" xmlns="http://www.w3.org/2000/svg">
<g id="Lab_Icon 1">
<g id="chip">
<g id="Group">
<g id="Group_2">
<path id="Vector" d="M350.99 280.07C349.57 280.07 348.23 279.79 347.09 279.25L299.74 256.79C298.09 256.01 297.03 254.77 296.76 253.31C296.48 251.84 297.03 250.29 298.29 248.95L334.38 210.69C336.1 208.86 338.94 207.73 341.78 207.73C343.2 207.73 344.54 208.01 345.68 208.55L393.03 231C394.68 231.78 395.74 233.02 396.01 234.48C396.29 235.95 395.74 237.5 394.48 238.84L358.39 277.1C356.67 278.93 353.83 280.07 350.99 280.07Z" fill="#16558C"/>
<path id="Vector_2" d="M341.79 208.22C343.13 208.22 344.4 208.49 345.47 208.99L392.82 231.45C394.32 232.16 395.28 233.27 395.52 234.57C395.77 235.88 395.27 237.28 394.12 238.5L358.03 276.76C356.4 278.49 353.7 279.56 350.99 279.56C349.65 279.56 348.38 279.29 347.31 278.79L299.96 256.33C298.46 255.62 297.5 254.51 297.26 253.21C297.01 251.9 297.51 250.5 298.66 249.28L334.75 211.02C336.38 209.3 339.08 208.22 341.79 208.22ZM341.78 207.22C338.9 207.22 335.91 208.34 334.02 210.34L297.93 248.6C295.09 251.61 295.81 255.47 299.53 257.24L346.88 279.7C348.12 280.29 349.54 280.57 350.99 280.57C353.87 280.57 356.86 279.45 358.75 277.45L394.84 239.19C397.68 236.18 396.96 232.32 393.24 230.55L345.89 208.09C344.65 207.5 343.23 207.22 341.78 207.22Z" fill="black"/>
</g>
<g id="Group_3">
<path id="Vector_3" d="M349.71 275.99C348.29 275.99 346.95 275.71 345.81 275.17L298.46 252.71C296.81 251.93 295.75 250.69 295.48 249.23C295.2 247.76 295.75 246.21 297.01 244.87L333.1 206.61C334.82 204.78 337.66 203.65 340.5 203.65C341.92 203.65 343.26 203.93 344.4 204.47L391.75 226.93C393.4 227.71 394.46 228.95 394.73 230.41C395.01 231.88 394.46 233.43 393.2 234.77L357.11 273.03C355.39 274.86 352.55 275.99 349.71 275.99Z" fill="#8BAAC6"/>
<path id="Vector_4" d="M340.5 204.15C341.84 204.15 343.11 204.42 344.18 204.92L391.53 227.38C393.03 228.09 393.99 229.2 394.23 230.5C394.48 231.81 393.98 233.21 392.83 234.43L356.74 272.69C355.11 274.42 352.41 275.49 349.7 275.49C348.36 275.49 347.09 275.22 346.02 274.72L298.67 252.26C297.17 251.55 296.21 250.44 295.97 249.14C295.72 247.83 296.22 246.43 297.37 245.21L333.46 206.95C335.1 205.22 337.8 204.15 340.5 204.15ZM340.5 203.15C337.62 203.15 334.63 204.27 332.74 206.27L296.65 244.53C293.81 247.54 294.53 251.4 298.25 253.17L345.6 275.63C346.84 276.22 348.26 276.5 349.71 276.5C352.59 276.5 355.58 275.38 357.47 273.38L393.56 235.12C396.4 232.11 395.68 228.25 391.96 226.48L344.61 204.02C343.37 203.43 341.95 203.15 340.5 203.15Z" fill="black"/>
</g>
<g id="Group_4">
<path id="Vector_5" d="M348.43 271.92C347.01 271.92 345.67 271.64 344.53 271.1L297.18 248.64C295.53 247.86 294.47 246.62 294.2 245.16C293.92 243.69 294.47 242.14 295.73 240.8L331.82 202.54C333.54 200.71 336.38 199.58 339.22 199.58C340.64 199.58 341.98 199.86 343.12 200.4L390.47 222.86C392.12 223.64 393.18 224.88 393.45 226.34C393.73 227.81 393.18 229.36 391.92 230.7L355.83 268.96C354.11 270.79 351.27 271.92 348.43 271.92Z" fill="white"/>
<path id="Vector_6" d="M339.22 200.08C340.56 200.08 341.83 200.35 342.9 200.85L390.25 223.31C391.75 224.02 392.71 225.13 392.95 226.43C393.2 227.74 392.7 229.14 391.55 230.36L355.46 268.62C353.83 270.35 351.13 271.42 348.42 271.42C347.08 271.42 345.81 271.15 344.74 270.65L297.39 248.19C295.89 247.48 294.93 246.37 294.69 245.07C294.44 243.76 294.94 242.36 296.09 241.14L332.18 202.88C333.82 201.15 336.51 200.08 339.22 200.08ZM339.22 199.08C336.34 199.08 333.35 200.2 331.46 202.2L295.37 240.46C292.53 243.47 293.25 247.33 296.97 249.1L344.32 271.56C345.56 272.15 346.98 272.43 348.43 272.43C351.31 272.43 354.3 271.31 356.19 269.31L392.28 231.05C395.12 228.04 394.4 224.18 390.68 222.41L343.33 199.95C342.09 199.36 340.67 199.08 339.22 199.08Z" fill="black"/>
</g>
</g>
<path id="Vector_7" d="M381 229.5C381.828 229.5 382.5 228.828 382.5 228C382.5 227.172 381.828 226.5 381 226.5C380.172 226.5 379.5 227.172 379.5 228C379.5 228.828 380.172 229.5 381 229.5Z" fill="#E8D066" stroke="black" stroke-miterlimit="10"/>
<path id="Vector_8" d="M306 245.5C306.828 245.5 307.5 244.828 307.5 244C307.5 243.172 306.828 242.5 306 242.5C305.172 242.5 304.5 243.172 304.5 244C304.5 244.828 305.172 245.5 306 245.5Z" fill="#E8C274" stroke="black" stroke-miterlimit="10"/>
<path id="Vector_9" d="M368 223.5C368.828 223.5 369.5 222.828 369.5 222C369.5 221.172 368.828 220.5 368 220.5C367.172 220.5 366.5 221.172 366.5 222C366.5 222.828 367.172 223.5 368 223.5Z" fill="#E8D066" stroke="black" stroke-miterlimit="10"/>
<path id="Vector_10" d="M345.34 251.06L323.16 239.63L340.52 218.87L362.71 230.3L345.34 251.06Z" fill="#E8D066" stroke="black" stroke-miterlimit="10"/>
<path id="Vector_11" d="M341.57 239.34L338.79 237.85C337.37 237.09 337.03 235.42 338.05 234.13L340.03 231.61C341.04 230.32 343.02 229.89 344.44 230.66L347.22 232.15C348.64 232.91 348.98 234.58 347.96 235.87L345.98 238.39C344.97 239.67 342.99 240.1 341.57 239.34Z" fill="#FFF16C" stroke="black" stroke-miterlimit="10"/>
<path id="Vector_12" d="M319 252.5C319.828 252.5 320.5 251.828 320.5 251C320.5 250.172 319.828 249.5 319 249.5C318.172 249.5 317.5 250.172 317.5 251C317.5 251.828 318.172 252.5 319 252.5Z" fill="#E8D066" stroke="black" stroke-miterlimit="10"/>
<path id="Vector_13" d="M333 259.5C333.828 259.5 334.5 258.828 334.5 258C334.5 257.172 333.828 256.5 333 256.5C332.172 256.5 331.5 257.172 331.5 258C331.5 258.828 332.172 259.5 333 259.5Z" fill="#E8D066" stroke="black" stroke-miterlimit="10"/>
<path id="Vector_14" d="M346 265.5C346.828 265.5 347.5 264.828 347.5 264C347.5 263.172 346.828 262.5 346 262.5C345.172 262.5 344.5 263.172 344.5 264C344.5 264.828 345.172 265.5 346 265.5Z" fill="#E8D066" stroke="black" stroke-miterlimit="10"/>
<path id="Vector_15" d="M319.96 249.86L326.58 241.39" stroke="black" stroke-miterlimit="10"/>
<path id="Vector_16" d="M307.5 242.5L311.5 238.5L329.5 247.5L332.24 244.31" stroke="black" stroke-miterlimit="10"/>
<path id="Vector_17" d="M333.79 256.5L337.46 251.84L329.5 247.5" stroke="black" stroke-miterlimit="10"/>
<path id="Vector_18" d="M347.5 262.5L348.54 261.15L337.46 255.9L342.32 249.5" stroke="black" stroke-miterlimit="10"/>
<path id="Vector_19" d="M359 253.5C359.828 253.5 360.5 252.828 360.5 252C360.5 251.172 359.828 250.5 359 250.5C358.172 250.5 357.5 251.172 357.5 252C357.5 252.828 358.172 253.5 359 253.5Z" fill="#E8D066" stroke="black" stroke-miterlimit="10"/>
<path id="Vector_20" d="M370 241.5C370.828 241.5 371.5 240.828 371.5 240C371.5 239.172 370.828 238.5 370 238.5C369.172 238.5 368.5 239.172 368.5 240C368.5 240.828 369.172 241.5 370 241.5Z" fill="#E8D066" stroke="black" stroke-miterlimit="10"/>
<path id="Vector_21" d="M379.5 226.5L377.5 225.5L373.83 226L354.5 249.5L357.5 251" stroke="black" stroke-miterlimit="10"/>
<path id="Vector_22" d="M369 239L359.28 234.4" stroke="black" stroke-miterlimit="10"/>
<path id="Vector_23" d="M367 223.11L364.14 226.5L370.95 229.5" stroke="black" stroke-miterlimit="10"/>
</g>
<g id="aptamer">
<path id="Vector_24" d="M345.29 236.5C345.3 228.64 345.29 225.47 346.48 220.75C348.03 214.59 350.18 210.94 352.42 205C354.8 198.7 354.24 195.43 352.42 190.82C349.93 184.52 344.18 183.23 342.92 182.94C341.88 182.71 336.46 181.49 332.23 186.09C331.24 187.17 328.88 189.73 328.67 193.97C328.45 198.28 330.61 201.27 331.05 201.85C333.44 205.01 336.44 205.01 336.99 205" stroke="black" stroke-width="0.75" stroke-miterlimit="10"/>
<path id="Vector_25" d="M342.07 234.87C342.08 227.01 342.07 223.84 343.26 219.12C344.81 212.96 346.96 209.31 349.2 203.37C351.58 197.07 351.02 193.8 349.2 189.19C346.71 182.89 340.96 181.6 339.7 181.31C338.66 181.08 333.24 179.86 329.01 184.46C328.02 185.54 325.66 188.1 325.45 192.34C325.23 196.65 327.39 199.64 327.83 200.22C330.22 203.38 333.22 203.38 333.77 203.37" stroke="black" stroke-width="2" stroke-miterlimit="10"/>
</g>
<g id="molecule">
<path id="Vector_26" d="M333.18 198.76C334.936 198.76 336.36 197.202 336.36 195.28C336.36 193.358 334.936 191.8 333.18 191.8C331.424 191.8 330 193.358 330 195.28C330 197.202 331.424 198.76 333.18 198.76Z" fill="#AEE5F2" stroke="#29ABE2" stroke-width="0.75" stroke-miterlimit="10"/>
<path id="Vector_27" d="M343.51 191.8C344.725 191.8 345.71 190.725 345.71 189.4C345.71 188.075 344.725 187 343.51 187C342.295 187 341.31 188.075 341.31 189.4C341.31 190.725 342.295 191.8 343.51 191.8Z" fill="#AEE5F2" stroke="#29ABE2" stroke-width="0.75" stroke-miterlimit="10"/>
<path id="Vector_28" d="M343.99 206C346.205 206 348 204.039 348 201.62C348 199.201 346.205 197.24 343.99 197.24C341.775 197.24 339.98 199.201 339.98 201.62C339.98 204.039 341.775 206 343.99 206Z" fill="#AEE5F2" stroke="#29ABE2" stroke-width="0.75" stroke-miterlimit="10"/>
<path id="Vector_29" d="M335.36 192.75L341.67 190.71" stroke="#29ABE2" stroke-width="0.75" stroke-miterlimit="10"/>
<path id="Vector_30" d="M344.02 191.73L343.99 197.23" stroke="#29ABE2" stroke-width="0.75" stroke-miterlimit="10"/>
<path id="Vector_31" d="M339.98 201.62L335.36 197.81" stroke="#29ABE2" stroke-width="0.75" stroke-miterlimit="10"/>
</g>
</g>
</svg>
