<?xml version="1.0" encoding="utf-8"?>
<!-- Generator: Adobe Illustrator 26.3.1, SVG Export Plug-In . SVG Version: 6.00 Build 0)  -->
<svg version="1.1" id="Layer_1" xmlns="http://www.w3.org/2000/svg" xmlns:xlink="http://www.w3.org/1999/xlink" x="0px" y="0px"
	 viewBox="0 0 321.97 303.35" style="enable-background:new 0 0 321.97 303.35;" xml:space="preserve">
<style type="text/css">
	.st0{fill:#16558C;}
	.st1{fill:#84A3BF;}
	.st2{fill:#F2F2F2;}
	.st3{fill:#E8D066;stroke:#000000;stroke-width:2;stroke-miterlimit:10;}
	.st4{fill:#E8C274;stroke:#000000;stroke-width:2;stroke-miterlimit:10;}
	.st5{fill:#FFF16C;stroke:#000000;stroke-width:2;stroke-miterlimit:10;}
	.st6{fill:none;stroke:#000000;stroke-width:2;stroke-miterlimit:10;}
	.st7{fill:#F2EC9B;stroke:#000000;stroke-width:2;stroke-miterlimit:10;}
	.st8{fill:#003369;}
	.st9{fill:none;stroke:#003369;stroke-width:2;stroke-miterlimit:10;}
</style>
<g>
	<g>
		<path class="st0" d="M183.33,296.7c-4.04,0-7.89-0.81-11.13-2.35L39.02,231.18c-4.75-2.25-7.81-5.84-8.61-10.09
			c-0.8-4.28,0.76-8.76,4.4-12.62l101.51-107.61c4.92-5.21,13.01-8.45,21.11-8.45c4.04,0,7.89,0.81,11.13,2.35l133.18,63.17
			c4.75,2.25,7.81,5.84,8.61,10.09c0.8,4.28-0.76,8.76-4.4,12.62l-101.51,107.6C199.52,293.46,191.43,296.7,183.33,296.7z"/>
		<path d="M157.44,93.41L157.44,93.41c3.89,0,7.59,0.78,10.7,2.25l133.18,63.17c4.46,2.11,7.32,5.44,8.05,9.37
			c0.74,3.95-0.73,8.13-4.15,11.75L203.71,287.56c-4.74,5.02-12.55,8.14-20.38,8.14c-3.89,0-7.59-0.78-10.7-2.25L39.45,230.27
			c-4.46-2.11-7.32-5.44-8.05-9.37c-0.74-3.95,0.73-8.13,4.15-11.75l101.51-107.61C141.79,96.53,149.6,93.41,157.44,93.41
			 M157.43,91.41c-8.11,0-16.52,3.14-21.83,8.77L34.09,207.78c-7.98,8.46-5.96,19.34,4.51,24.3l133.18,63.17
			c3.5,1.66,7.49,2.45,11.56,2.45c8.11,0,16.52-3.14,21.83-8.77l101.51-107.61c7.98-8.46,5.96-19.34-4.51-24.3L168.99,93.85
			C165.5,92.2,161.5,91.41,157.43,91.41L157.43,91.41z"/>
	</g>
	<g>
		<path class="st1" d="M179.73,285.25c-4.04,0-7.89-0.81-11.13-2.35L35.42,219.72c-4.75-2.25-7.81-5.84-8.61-10.09
			c-0.8-4.28,0.76-8.76,4.4-12.62L132.73,89.41c4.92-5.21,13.01-8.45,21.11-8.45c4.04,0,7.89,0.81,11.13,2.35l133.18,63.17
			c4.75,2.25,7.81,5.84,8.61,10.09c0.8,4.28-0.76,8.76-4.4,12.62l-101.51,107.6C195.92,282.01,187.83,285.25,179.73,285.25z"/>
		<path d="M153.83,81.95L153.83,81.95c3.89,0,7.59,0.78,10.7,2.25l133.18,63.17c4.46,2.11,7.32,5.44,8.05,9.37
			c0.74,3.95-0.73,8.13-4.15,11.75L200.11,276.11c-4.74,5.02-12.55,8.14-20.38,8.14c-3.89,0-7.59-0.78-10.7-2.25L35.85,218.82
			c-4.46-2.11-7.32-5.44-8.05-9.37c-0.74-3.95,0.73-8.13,4.15-11.75L133.45,90.09C138.19,85.07,146,81.95,153.83,81.95
			 M153.83,79.95c-8.11,0-16.52,3.14-21.83,8.77L30.49,196.33c-7.98,8.46-5.96,19.34,4.51,24.3l133.18,63.17
			c3.5,1.66,7.49,2.45,11.56,2.45c8.11,0,16.52-3.14,21.83-8.77l101.51-107.61c7.98-8.46,5.96-19.34-4.51-24.3L165.39,82.4
			C161.9,80.74,157.9,79.95,153.83,79.95L153.83,79.95z"/>
	</g>
	<g>
		<path class="st2" d="M176.13,273.79c-4.04,0-7.89-0.81-11.13-2.35L31.82,208.27c-4.75-2.25-7.81-5.84-8.61-10.09
			c-0.8-4.28,0.76-8.76,4.4-12.62L129.12,77.96c4.92-5.21,13.01-8.45,21.11-8.45c4.04,0,7.89,0.81,11.13,2.35l133.18,63.17
			c4.75,2.25,7.81,5.84,8.61,10.09c0.8,4.28-0.76,8.76-4.4,12.62L197.23,265.34C192.31,270.56,184.23,273.79,176.13,273.79z"/>
		<path d="M150.23,70.5L150.23,70.5c3.89,0,7.59,0.78,10.7,2.25l133.18,63.17c4.46,2.11,7.32,5.44,8.05,9.37
			c0.74,3.95-0.73,8.13-4.15,11.75L196.51,264.65c-4.74,5.02-12.55,8.14-20.38,8.14c-3.89,0-7.59-0.78-10.7-2.25L32.25,207.37
			c-4.46-2.11-7.32-5.44-8.05-9.37c-0.74-3.95,0.73-8.13,4.15-11.75L129.85,78.64C134.59,73.62,142.4,70.5,150.23,70.5 M150.23,68.5
			c-8.11,0-16.52,3.14-21.83,8.77L26.88,184.88c-7.98,8.46-5.96,19.34,4.51,24.3l133.18,63.17c3.5,1.66,7.49,2.45,11.56,2.45
			c8.11,0,16.52-3.14,21.83-8.77l101.51-107.61c7.98-8.46,5.96-19.34-4.51-24.3L161.79,70.95C158.29,69.29,154.3,68.5,150.23,68.5
			L150.23,68.5z"/>
	</g>
</g>
<circle class="st3" cx="267.73" cy="149.85" r="4.22"/>
<circle class="st4" cx="56.78" cy="194.85" r="4.22"/>
<circle class="st3" cx="231.17" cy="132.98" r="4.22"/>
<polygon class="st3" points="167.44,214.7 105.04,182.56 153.87,124.18 216.28,156.32 "/>
<path class="st5" d="M156.82,181.74l-7.81-4.18c-4.01-2.14-4.94-6.82-2.09-10.45l5.56-7.07c2.85-3.63,8.41-4.83,12.41-2.69
	l7.81,4.18c4.01,2.14,4.94,6.82,2.09,10.45l-5.56,7.07C166.38,182.68,160.82,183.88,156.82,181.74z"/>
<circle class="st3" cx="93.35" cy="214.54" r="4.22"/>
<circle class="st3" cx="132.73" cy="234.23" r="4.22"/>
<circle class="st3" cx="169.29" cy="251.11" r="4.22"/>
<line class="st6" x1="96.05" y1="211.33" x2="114.67" y2="187.52"/>
<polyline class="st6" points="61,190.63 72.25,179.38 122.88,204.7 130.59,195.72 "/>
<polyline class="st6" points="134.94,230.01 145.26,216.9 122.88,204.7 "/>
<polyline class="st6" points="171.96,248.7 176.44,243.08 145.26,228.32 158.95,210.32 "/>
<path class="st6" d="M-0.04,33.37"/>
<circle class="st3" cx="205.86" cy="217.36" r="4.22"/>
<circle class="st3" cx="236.79" cy="183.6" r="4.22"/>
<path class="st3" d="M163.18,236.8"/>
<polyline class="st6" points="264.96,146.7 257.89,142.82 247.56,144.23 193.2,210.32 201.64,214.54 "/>
<line class="st6" x1="233.98" y1="180.79" x2="206.64" y2="167.85"/>
<polyline class="st6" points="228.36,136.1 220.31,145.63 239.46,154.07 "/>
<g>
	<ellipse class="st7" cx="130.51" cy="53.72" rx="8.95" ry="9.78"/>
	<ellipse class="st7" cx="159.55" cy="37.18" rx="6.18" ry="6.75"/>
	<ellipse class="st7" cx="160.9" cy="71.54" rx="11.28" ry="12.33"/>
	<line class="st7" x1="136.64" y1="46.61" x2="154.39" y2="40.87"/>
	<line class="st7" x1="160.99" y1="43.74" x2="160.9" y2="59.21"/>
	<line class="st7" x1="149.62" y1="71.54" x2="136.64" y2="60.85"/>
</g>
<g>
	<g>
		<g>
			<path class="st8" d="M164.05,166.44c-0.23-1.09-0.43-2.19-0.6-3.29c-0.02-0.13-0.12-0.83-0.09-0.59
				c0.03,0.23-0.06-0.48-0.08-0.62c-0.08-0.65-0.15-1.31-0.21-1.97c-0.27-2.75-0.42-5.51-0.49-8.27c-0.16-6.07,0.03-12.15,0.49-18.2
				c0.44-5.8,1.01-10.89,2.1-16.48c1.23-6.34,3.29-12.5,5.62-18.51c2.75-7.11,6.01-14.01,9.43-20.81c1.66-3.3,3.29-6.62,5.19-9.79
				c1.51-2.52,3.2-4.94,4.68-7.48c3.2-5.47,4.6-11.46,4.01-17.79c-0.58-6.19-2.78-12.16-6.41-17.22
				c-7.48-10.4-19.41-16.62-32.17-17.14c-13.6-0.56-27.58,4.53-38.04,13.14c-5.16,4.24-8.48,10.07-10.47,16.4
				c-2,6.35-2.08,13.2,0.13,19.5c2.2,6.29,5.94,12.69,11.45,16.58c4.78,3.38,10.47,5.13,15.37,8.3c4.95,3.2,10.92,6.36,13.93,11.62
				c0.31,0.55,0.59,1.11,0.86,1.69c0.06,0.13,0.11,0.25,0.17,0.38c-0.02-0.05-0.16-0.39-0.03-0.07c0.12,0.31,0.24,0.62,0.35,0.94
				c0.41,1.16,0.73,2.35,0.98,3.55c0.12,0.59,0.23,1.19,0.32,1.79c0.05,0.35,0,0.03,0-0.04c0.02,0.15,0.04,0.31,0.05,0.46
				c0.04,0.36,0.07,0.72,0.1,1.08c0.09,1.29,0.11,2.58,0.04,3.87c-0.24,4.42-1.69,9.05-4.98,12.05c-0.11,0.1-0.6,0.52-0.47,0.41
				c0.13-0.11-0.39,0.28-0.51,0.37c-0.59,0.4-1.21,0.77-1.86,1.06c-1.22,0.55-2.7,0.88-3.89,0.97c-2.88,0.21-5.22-0.22-7.98-1.13
				c-0.53-0.17-1.05-0.36-1.56-0.56c-0.11-0.04-0.78-0.32-0.43-0.17c0.36,0.15-0.24-0.11-0.34-0.15c-0.52-0.24-1.03-0.49-1.54-0.76
				c-3.4-1.83-6.44,3.35-3.03,5.18c4.12,2.21,8.89,3.65,13.58,3.64c6.32-0.01,12.02-3.07,15.39-8.41
				c2.85-4.52,3.86-10.17,3.64-15.44c-0.23-5.3-1.56-11-4.71-15.36c-3.83-5.28-9.65-8.67-15.04-12.15
				c-4.9-3.17-10.59-4.92-15.37-8.3c-2.3-1.63-3.84-3.81-5.46-6.43c-1.69-2.74-3.08-5.62-3.9-8.74c-1.57-5.92-0.63-12.14,1.94-17.85
				c1.19-2.66,2.65-5.18,4.5-7.19c2.01-2.2,4.24-3.88,6.7-5.5c5.49-3.62,11.61-6.18,18.03-7.61c6.15-1.37,12.71-1.63,18.81-0.22
				c5.52,1.28,10.72,3.91,14.94,7.56c8.49,7.34,13.73,19.35,9.85,30.33c-0.36,1.01-0.77,1.9-1.41,3.08
				c-0.68,1.25-1.43,2.46-2.19,3.66c-1.7,2.67-3.44,5.32-4.94,8.12c-3.63,6.78-7.02,13.72-10.1,20.77
				c-3.02,6.91-5.76,13.97-7.75,21.25c-1.4,5.13-2.18,10.42-2.81,15.69c-1.39,11.62-1.93,23.59-0.67,35.25
				c0.26,2.4,0.59,4.79,1.1,7.15c0.34,1.58,2.19,2.51,3.69,2.1C163.6,169.68,164.4,168.03,164.05,166.44L164.05,166.44z"/>
		</g>
	</g>
	<line class="st9" x1="149.68" y1="115.1" x2="161.5" y2="119.31"/>
	<line class="st9" x1="152.19" y1="107.55" x2="163.68" y2="110.26"/>
	<line class="st9" x1="152.71" y1="99.1" x2="166.16" y2="102.45"/>
</g>
</svg>
