<?xml version="1.0" encoding="utf-8"?>
<!-- Generator: Adobe Illustrator 26.3.1, SVG Export Plug-In . SVG Version: 6.00 Build 0)  -->
<svg version="1.1" id="Layer_1" xmlns="http://www.w3.org/2000/svg" xmlns:xlink="http://www.w3.org/1999/xlink" x="0px" y="0px"
	 viewBox="0 0 378.98 346.23" style="enable-background:new 0 0 378.98 346.23;" xml:space="preserve">
<style type="text/css">
	.st0{fill:#FFFFFF;stroke:#006838;stroke-width:2;stroke-miterlimit:10;}
	.st1{fill:#FFFFFF;stroke:#BE1E2D;stroke-width:2;stroke-miterlimit:10;}
	.st2{fill:#FFFFFF;stroke:#2B3990;stroke-width:2;stroke-miterlimit:10;}
	.st3{fill:#BE1E2D;}
	.st4{fill:#006838;}
	.st5{fill:#2B3990;}
</style>
<path class="st0" d="M359.1,251.66c0,39.77-32.23,72.02-72,72.02c-39.76,0-72-32.25-72-72.02c0-39.76,32.24-72,72-72
	C326.86,179.66,359.1,211.89,359.1,251.66z"/>
<circle class="st1" cx="193.95" cy="94.4" r="72"/>
<path class="st2" d="M173.2,253.97c0,39.76-32.24,72.02-72,72.02c-39.76,0-72-32.25-72-72.02c0-39.76,32.24-72,72-72
	C140.97,181.97,173.2,214.2,173.2,253.97z"/>
<polygon points="200.58,234.79 213.84,248.05 200.58,261.31 200.58,254.68 187.32,254.68 187.32,261.31 174.06,248.05 
	187.32,234.79 187.32,241.42 200.58,241.42 "/>
<polygon points="146.36,162.14 165.11,162.13 165.11,180.89 160.42,176.2 151.05,185.58 155.74,190.27 136.98,190.27 136.98,171.51 
	141.67,176.2 151.05,166.82 "/>
<polygon points="249.69,171.51 249.7,190.27 230.94,190.27 235.63,185.58 226.25,176.2 221.56,180.89 221.56,162.13 240.32,162.13 
	235.63,166.82 245.01,176.2 "/>
<g>
	<g>
		<path class="st3" d="M172.89,79.07c-0.52,0.26-1.68,0.55-3.15,0.55c-3.85,0-6.19-2.42-6.19-6.11c0-3.99,2.79-6.4,6.5-6.4
			c1.46,0,2.49,0.3,2.94,0.54l-0.48,1.77c-0.57-0.26-1.37-0.48-2.37-0.48c-2.47,0-4.25,1.54-4.25,4.46c0,2.67,1.56,4.37,4.23,4.37
			c0.9,0,1.83-0.18,2.42-0.44L172.89,79.07z"/>
		<path class="st3" d="M177.04,68.21c0,0.66-0.48,1.2-1.26,1.2c-0.73,0-1.22-0.53-1.21-1.2c0-0.68,0.5-1.2,1.24-1.2
			C176.55,67.02,177.03,67.53,177.04,68.21z M174.69,79.43v-8.77h2.22v8.77H174.69z"/>
		<path class="st3" d="M179.29,73.49c0-1.17-0.02-2.04-0.07-2.82h1.92l0.08,1.67h0.06c0.43-1.23,1.45-1.86,2.4-1.86
			c0.22,0,0.34,0.01,0.52,0.05v2.09c-0.19-0.04-0.38-0.06-0.65-0.06c-1.06,0-1.79,0.67-1.99,1.68c-0.04,0.2-0.06,0.43-0.06,0.67
			v4.55h-2.22V73.49z"/>
		<path class="st3" d="M192.13,79.17c-0.46,0.22-1.37,0.45-2.47,0.45c-2.75,0-4.52-1.76-4.52-4.48c0-2.62,1.79-4.66,4.88-4.66
			c0.82,0,1.63,0.18,2.14,0.4l-0.39,1.67c-0.36-0.17-0.89-0.34-1.68-0.34c-1.69,0-2.69,1.24-2.68,2.84c0,1.8,1.18,2.83,2.69,2.83
			c0.76,0,1.31-0.16,1.74-0.35L192.13,79.17z"/>
		<path class="st3" d="M201.63,76.81c0,1.04,0.03,1.91,0.07,2.63h-1.94l-0.11-1.32h-0.05c-0.37,0.61-1.24,1.52-2.81,1.52
			c-1.6,0-3.05-0.96-3.05-3.82v-5.14h2.22v4.77c0,1.46,0.46,2.39,1.63,2.39c0.89,0,1.46-0.62,1.69-1.18
			c0.07-0.19,0.12-0.43,0.12-0.69v-5.29h2.22V76.81z"/>
		<path class="st3" d="M206.38,68.21c0,0.66-0.48,1.2-1.26,1.2c-0.73,0-1.22-0.53-1.21-1.2c0-0.68,0.5-1.2,1.24-1.2
			C205.89,67.02,206.37,67.53,206.38,68.21z M204.03,79.43v-8.77h2.22v8.77H204.03z"/>
		<path class="st3" d="M211.17,68.16v2.51h2.11v1.65h-2.11v3.87c0,1.07,0.29,1.62,1.13,1.62c0.38,0,0.66-0.04,0.86-0.1l0.04,1.69
			c-0.33,0.12-0.91,0.23-1.61,0.23c-0.81,0-1.49-0.28-1.9-0.72c-0.48-0.5-0.69-1.31-0.69-2.46v-4.12h-1.25v-1.65H209v-1.99
			L211.17,68.16z"/>
		<path class="st3" d="M214.85,77.39c0.49,0.3,1.44,0.64,2.24,0.64c0.98,0,1.41-0.41,1.41-0.98c0-0.59-0.36-0.9-1.44-1.28
			c-1.72-0.59-2.43-1.52-2.42-2.56c0-1.54,1.28-2.74,3.33-2.74c0.97,0,1.81,0.24,2.32,0.52l-0.44,1.56c-0.37-0.21-1.08-0.5-1.85-0.5
			c-0.79,0-1.23,0.39-1.23,0.93c0,0.56,0.42,0.82,1.53,1.23c1.6,0.56,2.33,1.38,2.34,2.67c0,1.6-1.25,2.75-3.56,2.75
			c-1.06,0-2.03-0.25-2.67-0.61L214.85,77.39z"/>
		<path class="st3" d="M195.22,101.03c-0.3-0.3-0.58-0.61-0.95-1.01c-0.91,0.77-2.04,1.21-3.43,1.21c-2.68,0-4.01-1.67-4.01-3.42
			c0-1.63,0.95-2.77,2.34-3.51l0-0.06c-0.57-0.67-0.97-1.56-0.97-2.43c0-1.52,1.15-3.11,3.4-3.11c1.71,0,3.02,1.06,3.02,2.72
			c0,1.25-0.73,2.28-2.52,3.17l-0.01,0.07c0.84,0.96,1.77,2.04,2.44,2.77c0.52-0.8,0.89-1.94,1.1-3.22h1.99
			c-0.32,1.87-0.89,3.41-1.89,4.55c0.67,0.74,1.34,1.49,2.08,2.28H195.22z M193.21,98.77c-0.74-0.76-1.89-2.05-3.03-3.35
			c-0.57,0.39-1.23,1.02-1.23,2.03c0,1.2,0.88,2.15,2.23,2.15C192.04,99.6,192.76,99.25,193.21,98.77z M190.21,91.6
			c0,0.73,0.34,1.33,0.87,1.94c1.04-0.65,1.63-1.2,1.63-2.05c0-0.65-0.37-1.37-1.21-1.37C190.66,90.13,190.21,90.84,190.21,91.6z"/>
		<path class="st3" d="M163.07,120.22c0.72,0.41,1.8,0.77,2.93,0.77c1.41,0,2.21-0.66,2.21-1.66c0-0.92-0.61-1.46-2.15-2.01
			c-2-0.71-3.29-1.79-3.29-3.53c0-1.99,1.66-3.48,4.29-3.48c1.32,0,2.28,0.28,2.91,0.6l-0.53,1.79c-0.44-0.23-1.28-0.58-2.42-0.58
			c-1.41,0-2,0.75-2,1.46c0,0.93,0.7,1.37,2.32,1.99c2.11,0.81,3.12,1.86,3.12,3.61c0,1.95-1.47,3.65-4.6,3.65
			c-1.28,0-2.62-0.37-3.28-0.77L163.07,120.22z"/>
		<path class="st3" d="M173.76,113.87l1.58,4.7c0.17,0.54,0.36,1.21,0.49,1.7h0.05c0.14-0.49,0.3-1.15,0.46-1.72l1.37-4.68h2.36
			l-2.2,5.98c-1.2,3.27-2.02,4.73-3.05,5.64c-0.87,0.76-1.77,1.05-2.32,1.12l-0.5-1.87c0.37-0.09,0.84-0.29,1.28-0.6
			c0.42-0.28,0.91-0.79,1.22-1.4c0.09-0.15,0.14-0.28,0.14-0.39c0-0.1-0.02-0.23-0.12-0.43l-3.22-8.05H173.76z"/>
		<path class="st3" d="M181.27,120.59c0.49,0.3,1.44,0.64,2.24,0.64c0.98,0,1.41-0.41,1.41-0.98c0-0.59-0.36-0.9-1.44-1.28
			c-1.72-0.59-2.43-1.52-2.42-2.56c0-1.54,1.28-2.74,3.33-2.74c0.97,0,1.81,0.24,2.32,0.52l-0.44,1.56c-0.37-0.21-1.08-0.5-1.85-0.5
			c-0.79,0-1.23,0.39-1.23,0.93c0,0.56,0.42,0.82,1.53,1.23c1.6,0.56,2.33,1.38,2.34,2.67c0,1.6-1.25,2.75-3.56,2.75
			c-1.06,0-2.03-0.25-2.67-0.61L181.27,120.59z"/>
		<path class="st3" d="M191.42,111.36v2.51h2.11v1.65h-2.11v3.87c0,1.07,0.29,1.62,1.13,1.62c0.38,0,0.66-0.04,0.86-0.1l0.04,1.69
			c-0.33,0.12-0.91,0.23-1.61,0.23c-0.81,0-1.49-0.28-1.9-0.72c-0.48-0.5-0.69-1.31-0.69-2.46v-4.12h-1.25v-1.65h1.25v-1.99
			L191.42,111.36z"/>
		<path class="st3" d="M196.76,118.86c0.06,1.59,1.29,2.28,2.71,2.28c1.02,0,1.75-0.16,2.42-0.41l0.33,1.53
			c-0.75,0.32-1.79,0.56-3.06,0.56c-2.85,0-4.51-1.76-4.51-4.44c0-2.42,1.47-4.71,4.29-4.71c2.85,0,3.78,2.34,3.78,4.26
			c0,0.41-0.04,0.74-0.08,0.93H196.76z M200.61,117.32c0.01-0.81-0.34-2.14-1.83-2.14c-1.36,0-1.93,1.24-2.03,2.14H200.61z"/>
		<path class="st3" d="M204.49,116.47c0-1.01-0.03-1.85-0.07-2.61h1.89l0.1,1.29h0.05c0.42-0.68,1.22-1.48,2.7-1.48
			c1.16,0,2.05,0.64,2.43,1.62h0.04c0.31-0.48,0.68-0.85,1.07-1.1c0.5-0.34,1.05-0.52,1.78-0.52c1.45,0,2.93,0.99,2.93,3.8v5.16
			h-2.16v-4.85c0-1.46-0.51-2.32-1.56-2.32c-0.76,0-1.31,0.54-1.54,1.17c-0.07,0.21-0.11,0.49-0.11,0.74v5.26h-2.16v-5.07
			c0-1.23-0.49-2.1-1.51-2.1c-0.83,0-1.39,0.65-1.6,1.25c-0.08,0.22-0.11,0.48-0.11,0.73v5.18h-2.16V116.47z"/>
		<path class="st3" d="M219.64,120.59c0.49,0.3,1.44,0.64,2.24,0.64c0.98,0,1.41-0.41,1.41-0.98c0-0.59-0.36-0.9-1.44-1.28
			c-1.72-0.59-2.43-1.52-2.42-2.56c0-1.54,1.28-2.74,3.33-2.74c0.97,0,1.81,0.24,2.32,0.52l-0.44,1.56c-0.37-0.21-1.08-0.5-1.85-0.5
			c-0.79,0-1.23,0.39-1.23,0.93c0,0.56,0.42,0.82,1.53,1.23c1.6,0.56,2.33,1.38,2.34,2.67c0,1.6-1.25,2.75-3.56,2.75
			c-1.06,0-2.03-0.25-2.67-0.61L219.64,120.59z"/>
	</g>
</g>
<g>
	<g>
		<path class="st4" d="M247.47,225.59c0.71-0.14,1.99-0.26,3.24-0.26c1.63,0,2.65,0.21,3.47,0.77c0.75,0.46,1.25,1.24,1.25,2.28
			c0,1.11-0.7,2.13-2.02,2.62v0.05c1.28,0.33,2.46,1.33,2.46,3.01c0,1.08-0.47,1.92-1.16,2.5c-0.87,0.75-2.29,1.12-4.51,1.12
			c-1.23,0-2.15-0.08-2.73-0.16V225.59z M249.67,230.38h1.14c1.54,0,2.39-0.72,2.39-1.75c0-1.14-0.86-1.66-2.26-1.66
			c-0.66,0-1.03,0.04-1.27,0.1V230.38z M249.67,235.95c0.29,0.05,0.66,0.06,1.17,0.06c1.42,0,2.69-0.53,2.69-2.03
			c0-1.41-1.24-1.99-2.76-1.99h-1.1V235.95z"/>
		<path class="st4" d="M260.12,226.34c0,0.66-0.48,1.2-1.26,1.2c-0.73,0-1.22-0.53-1.21-1.2c0-0.68,0.5-1.2,1.24-1.2
			C259.63,225.14,260.11,225.66,260.12,226.34z M257.77,237.56v-8.77h2.22v8.77H257.77z"/>
		<path class="st4" d="M270.7,233.09c0,3.22-2.26,4.67-4.5,4.67c-2.47,0-4.39-1.71-4.39-4.52c0-2.88,1.89-4.65,4.54-4.65
			C268.96,228.59,270.7,230.43,270.7,233.09z M264.09,233.18c0,1.69,0.84,2.96,2.18,2.96c1.27,0,2.15-1.23,2.15-2.99
			c0-1.38-0.61-2.95-2.14-2.95C264.73,230.2,264.09,231.72,264.09,233.18z"/>
		<path class="st4" d="M272.42,235.52c0.49,0.3,1.44,0.64,2.24,0.64c0.98,0,1.41-0.41,1.41-0.98c0-0.59-0.36-0.9-1.44-1.28
			c-1.72-0.59-2.43-1.52-2.42-2.56c0-1.54,1.28-2.74,3.33-2.74c0.97,0,1.81,0.24,2.33,0.52l-0.44,1.56c-0.37-0.21-1.08-0.5-1.85-0.5
			c-0.79,0-1.23,0.39-1.23,0.93c0,0.56,0.42,0.82,1.53,1.23c1.6,0.56,2.33,1.38,2.34,2.67c0,1.6-1.25,2.75-3.56,2.75
			c-1.06,0-2.03-0.25-2.67-0.61L272.42,235.52z"/>
		<path class="st4" d="M281.59,233.79c0.06,1.59,1.29,2.28,2.71,2.28c1.02,0,1.75-0.16,2.42-0.41l0.33,1.53
			c-0.75,0.32-1.79,0.56-3.06,0.56c-2.85,0-4.51-1.76-4.51-4.44c0-2.42,1.47-4.71,4.29-4.71c2.85,0,3.78,2.34,3.78,4.26
			c0,0.41-0.04,0.74-0.08,0.93H281.59z M285.45,232.24c0.01-0.81-0.34-2.14-1.83-2.14c-1.36,0-1.93,1.24-2.03,2.14H285.45z"/>
		<path class="st4" d="M289.32,231.4c0-1.01-0.03-1.85-0.07-2.61h1.94l0.11,1.32h0.05c0.39-0.68,1.34-1.51,2.79-1.51
			c1.53,0,3.12,0.98,3.12,3.76v5.21h-2.22v-4.95c0-1.26-0.46-2.22-1.67-2.22c-0.88,0-1.49,0.62-1.72,1.3
			c-0.07,0.18-0.1,0.45-0.1,0.7v5.16h-2.22V231.4z"/>
		<path class="st4" d="M299.51,235.52c0.49,0.3,1.44,0.64,2.24,0.64c0.98,0,1.41-0.41,1.41-0.98c0-0.59-0.36-0.9-1.44-1.28
			c-1.72-0.59-2.43-1.52-2.42-2.56c0-1.54,1.28-2.74,3.33-2.74c0.97,0,1.81,0.24,2.33,0.52l-0.44,1.56c-0.37-0.21-1.08-0.5-1.85-0.5
			c-0.79,0-1.23,0.39-1.23,0.93c0,0.56,0.42,0.82,1.53,1.23c1.6,0.56,2.33,1.38,2.34,2.67c0,1.6-1.25,2.75-3.56,2.75
			c-1.06,0-2.03-0.25-2.67-0.61L299.51,235.52z"/>
		<path class="st4" d="M315.45,233.09c0,3.22-2.26,4.67-4.5,4.67c-2.47,0-4.39-1.71-4.39-4.52c0-2.88,1.89-4.65,4.54-4.65
			C313.71,228.59,315.45,230.43,315.45,233.09z M308.84,233.18c0,1.69,0.84,2.96,2.18,2.96c1.27,0,2.15-1.23,2.15-2.99
			c0-1.38-0.61-2.95-2.14-2.95C309.48,230.2,308.84,231.72,308.84,233.18z"/>
		<path class="st4" d="M317.27,231.61c0-1.17-0.02-2.04-0.07-2.82h1.92l0.08,1.67h0.06c0.43-1.23,1.45-1.86,2.4-1.86
			c0.22,0,0.34,0.01,0.52,0.05v2.09c-0.19-0.04-0.38-0.06-0.65-0.06c-1.06,0-1.79,0.67-1.99,1.68c-0.04,0.2-0.06,0.43-0.06,0.67
			v4.55h-2.22V231.61z"/>
		<path class="st4" d="M323.58,235.52c0.49,0.3,1.44,0.64,2.24,0.64c0.98,0,1.41-0.41,1.41-0.98c0-0.59-0.36-0.9-1.44-1.28
			c-1.72-0.59-2.43-1.52-2.42-2.56c0-1.54,1.28-2.74,3.33-2.74c0.97,0,1.81,0.24,2.33,0.52l-0.44,1.56c-0.37-0.21-1.08-0.5-1.85-0.5
			c-0.79,0-1.23,0.39-1.23,0.93c0,0.56,0.42,0.82,1.53,1.23c1.6,0.56,2.33,1.38,2.34,2.67c0,1.6-1.25,2.75-3.56,2.75
			c-1.06,0-2.03-0.25-2.67-0.61L323.58,235.52z"/>
		<path class="st4" d="M291.24,259.16c-0.3-0.3-0.58-0.61-0.95-1.01c-0.91,0.77-2.04,1.21-3.43,1.21c-2.68,0-4.01-1.67-4.01-3.42
			c0-1.63,0.95-2.77,2.34-3.51l0-0.06c-0.57-0.67-0.97-1.56-0.97-2.43c0-1.52,1.15-3.11,3.4-3.11c1.71,0,3.02,1.06,3.02,2.72
			c0,1.25-0.73,2.28-2.52,3.17l-0.01,0.07c0.84,0.96,1.77,2.04,2.45,2.77c0.52-0.8,0.89-1.94,1.09-3.22h1.99
			c-0.32,1.87-0.89,3.41-1.89,4.55c0.67,0.74,1.34,1.49,2.08,2.28H291.24z M289.23,256.9c-0.74-0.76-1.89-2.05-3.03-3.35
			c-0.57,0.39-1.23,1.02-1.23,2.03c0,1.2,0.88,2.15,2.23,2.15C288.05,257.72,288.77,257.37,289.23,256.9z M286.23,249.72
			c0,0.73,0.34,1.33,0.87,1.94c1.04-0.65,1.63-1.2,1.63-2.05c0-0.65-0.37-1.37-1.21-1.37C286.68,248.25,286.23,248.96,286.23,249.72
			z"/>
		<path class="st4" d="M261.59,268.79c0.71-0.14,1.99-0.26,3.24-0.26c1.63,0,2.65,0.21,3.47,0.77c0.75,0.46,1.25,1.24,1.25,2.28
			c0,1.11-0.7,2.13-2.02,2.62v0.05c1.28,0.33,2.46,1.33,2.46,3.01c0,1.08-0.47,1.92-1.16,2.5c-0.87,0.75-2.29,1.12-4.51,1.12
			c-1.23,0-2.15-0.08-2.73-0.16V268.79z M263.8,273.58h1.14c1.54,0,2.39-0.72,2.39-1.75c0-1.14-0.86-1.66-2.26-1.66
			c-0.66,0-1.03,0.04-1.27,0.1V273.58z M263.8,279.15c0.29,0.05,0.66,0.06,1.17,0.06c1.42,0,2.69-0.53,2.69-2.03
			c0-1.41-1.24-1.99-2.76-1.99h-1.1V279.15z"/>
		<path class="st4" d="M274.24,269.54c0,0.66-0.48,1.2-1.26,1.2c-0.74,0-1.22-0.53-1.21-1.2c0-0.68,0.5-1.2,1.24-1.2
			C273.75,268.34,274.23,268.86,274.24,269.54z M271.89,280.76v-8.77h2.22v8.77H271.89z"/>
		<path class="st4" d="M284.82,276.29c0,3.22-2.26,4.67-4.5,4.67c-2.47,0-4.39-1.71-4.39-4.52c0-2.88,1.89-4.65,4.54-4.65
			C283.08,271.79,284.82,273.63,284.82,276.29z M278.21,276.38c0,1.69,0.84,2.96,2.18,2.96c1.27,0,2.15-1.23,2.15-2.99
			c0-1.38-0.61-2.95-2.14-2.95C278.85,273.4,278.21,274.92,278.21,276.38z"/>
		<path class="st4" d="M288.21,276.99c0.06,1.59,1.29,2.28,2.71,2.28c1.02,0,1.75-0.16,2.42-0.41l0.33,1.53
			c-0.75,0.32-1.79,0.56-3.06,0.56c-2.85,0-4.51-1.76-4.51-4.44c0-2.42,1.47-4.71,4.29-4.71c2.85,0,3.78,2.34,3.78,4.26
			c0,0.41-0.04,0.74-0.08,0.93H288.21z M292.06,275.44c0.01-0.81-0.34-2.14-1.83-2.14c-1.36,0-1.93,1.24-2.03,2.14H292.06z"/>
		<path class="st4" d="M295.94,274.6c0-1.01-0.03-1.85-0.07-2.61h1.94l0.11,1.32h0.05c0.39-0.68,1.34-1.51,2.79-1.51
			c1.53,0,3.12,0.98,3.12,3.76v5.21h-2.22v-4.95c0-1.26-0.46-2.22-1.67-2.22c-0.88,0-1.49,0.62-1.72,1.3
			c-0.07,0.18-0.1,0.45-0.1,0.7v5.16h-2.22V274.6z"/>
		<path class="st4" d="M314.24,271.99c-0.04,0.59-0.08,1.32-0.08,2.52v4.97c0,1.84-0.37,3.14-1.3,3.97
			c-0.92,0.81-2.19,1.07-3.39,1.07c-1.11,0-2.3-0.24-3.05-0.69l0.48-1.69c0.57,0.34,1.5,0.68,2.56,0.68c1.44,0,2.52-0.76,2.52-2.65
			v-0.75h-0.04c-0.5,0.77-1.39,1.29-2.55,1.29c-2.17,0-3.72-1.8-3.72-4.28c0-2.89,1.87-4.63,3.97-4.63c1.35,0,2.13,0.64,2.55,1.36
			h0.04l0.08-1.17H314.24z M311.95,275.51c0-0.21-0.02-0.42-0.07-0.6c-0.23-0.81-0.87-1.43-1.81-1.43c-1.23,0-2.15,1.08-2.15,2.87
			c0,1.49,0.75,2.7,2.14,2.7c0.83,0,1.54-0.54,1.79-1.34c0.07-0.23,0.1-0.53,0.1-0.78V275.51z"/>
		<path class="st4" d="M316.27,279.53c0-0.84,0.57-1.43,1.37-1.43c0.81,0,1.36,0.58,1.37,1.43c0,0.82-0.54,1.42-1.37,1.42
			C316.83,280.95,316.26,280.35,316.27,279.53z"/>
	</g>
</g>
<g>
	<g>
		<path class="st5" d="M74.16,246.96l-1.04,3.43h-2.29l3.89-12.14h2.82l3.94,12.14h-2.38l-1.1-3.43H74.16z M77.65,245.29l-0.96-2.99
			c-0.23-0.75-0.43-1.58-0.62-2.28h-0.04c-0.18,0.71-0.36,1.55-0.58,2.27l-0.94,3H77.65z"/>
		<path class="st5" d="M83.1,244.53c0-1.14-0.03-2.08-0.07-2.91h1.95l0.11,1.35h0.04c0.64-0.99,1.67-1.54,3-1.54
			c2.01,0,3.68,1.72,3.68,4.46c0,3.18-1.99,4.7-3.99,4.7c-1.1,0-2.02-0.46-2.46-1.17h-0.04v4.54H83.1V244.53z M85.31,246.72
			c0,0.21,0.02,0.42,0.06,0.6c0.23,0.9,1.01,1.55,1.95,1.55c1.41,0,2.23-1.17,2.23-2.89c0-1.55-0.75-2.81-2.18-2.81
			c-0.91,0-1.75,0.67-1.98,1.64c-0.05,0.18-0.08,0.37-0.08,0.56V246.72z"/>
		<path class="st5" d="M93.63,244.53c0-1.14-0.03-2.08-0.07-2.91h1.95l0.11,1.35h0.04c0.64-0.99,1.67-1.54,3-1.54
			c2.01,0,3.68,1.72,3.68,4.46c0,3.18-1.99,4.7-3.99,4.7c-1.1,0-2.02-0.46-2.46-1.17h-0.04v4.54h-2.22V244.53z M95.84,246.72
			c0,0.21,0.02,0.42,0.06,0.6c0.23,0.9,1.01,1.55,1.95,1.55c1.41,0,2.23-1.17,2.23-2.89c0-1.55-0.75-2.81-2.18-2.81
			c-0.91,0-1.75,0.67-1.98,1.64c-0.05,0.18-0.08,0.37-0.08,0.56V246.72z"/>
		<path class="st5" d="M104.16,237.61h2.22v12.78h-2.22V237.61z"/>
		<path class="st5" d="M111.13,239.18c0,0.66-0.48,1.2-1.26,1.2c-0.73,0-1.22-0.53-1.21-1.2c0-0.68,0.5-1.2,1.24-1.2
			C110.65,237.98,111.13,238.49,111.13,239.18z M108.79,250.39v-8.77H111v8.77H108.79z"/>
		<path class="st5" d="M114.95,246.62c0.06,1.59,1.29,2.28,2.71,2.28c1.02,0,1.75-0.16,2.42-0.41l0.33,1.53
			c-0.75,0.32-1.79,0.56-3.06,0.56c-2.85,0-4.51-1.76-4.51-4.44c0-2.42,1.47-4.71,4.29-4.71c2.85,0,3.78,2.34,3.78,4.26
			c0,0.41-0.04,0.74-0.08,0.93H114.95z M118.81,245.08c0.01-0.81-0.34-2.14-1.83-2.14c-1.36,0-1.93,1.24-2.03,2.14H118.81z"/>
		<path class="st5" d="M130.76,237.61v10.33c0,0.9,0.03,1.86,0.07,2.46h-1.97l-0.1-1.39h-0.04c-0.52,0.98-1.58,1.59-2.85,1.59
			c-2.09,0-3.75-1.79-3.75-4.48c-0.01-2.94,1.82-4.68,3.93-4.68c1.2,0,2.06,0.49,2.46,1.14h0.04v-4.96H130.76z M128.54,245.28
			c0-0.18-0.01-0.4-0.05-0.58c-0.2-0.85-0.91-1.56-1.91-1.56c-1.43,0-2.22,1.26-2.22,2.88c0,1.61,0.8,2.79,2.19,2.79
			c0.91,0,1.69-0.62,1.91-1.58c0.05-0.2,0.07-0.41,0.07-0.65V245.28z"/>
		<path class="st5" d="M73.94,260.01c0.8-0.14,1.9-0.25,3.39-0.25c1.62,0,2.8,0.34,3.57,0.99c0.72,0.59,1.19,1.55,1.19,2.69
			c0,1.15-0.36,2.1-1.03,2.75c-0.89,0.88-2.26,1.31-3.84,1.31c-0.41,0-0.79-0.02-1.09-0.09v4.58h-2.2V260.01z M76.14,265.67
			c0.28,0.07,0.63,0.1,1.09,0.1c1.66,0,2.67-0.83,2.67-2.25c0-1.34-0.94-2.06-2.47-2.06c-0.61,0-1.05,0.05-1.28,0.11V265.67z"/>
		<path class="st5" d="M83.93,259.21h2.22v5.21h0.04c0.28-0.41,0.65-0.75,1.1-1c0.43-0.24,0.96-0.39,1.51-0.39
			c1.49,0,3.06,0.99,3.06,3.8v5.16h-2.22v-4.92c0-1.27-0.46-2.24-1.68-2.24c-0.87,0-1.47,0.58-1.72,1.24
			c-0.07,0.19-0.1,0.43-0.1,0.67v5.24h-2.22V259.21z"/>
		<path class="st5" d="M95.61,263.23l1.58,4.7c0.17,0.54,0.36,1.21,0.49,1.7h0.05c0.14-0.49,0.3-1.15,0.46-1.72l1.37-4.68h2.36
			l-2.2,5.98c-1.2,3.27-2.02,4.73-3.05,5.64c-0.87,0.76-1.77,1.05-2.32,1.12l-0.5-1.87c0.37-0.09,0.84-0.29,1.28-0.6
			c0.42-0.28,0.91-0.79,1.22-1.4c0.09-0.15,0.14-0.28,0.14-0.39c0-0.1-0.02-0.23-0.12-0.43l-3.22-8.05H95.61z"/>
		<path class="st5" d="M103.12,269.96c0.49,0.3,1.44,0.64,2.24,0.64c0.98,0,1.41-0.41,1.41-0.98c0-0.59-0.36-0.9-1.44-1.28
			c-1.72-0.59-2.43-1.52-2.42-2.56c0-1.54,1.28-2.74,3.33-2.74c0.97,0,1.81,0.24,2.32,0.52l-0.44,1.56c-0.37-0.21-1.08-0.5-1.85-0.5
			c-0.79,0-1.23,0.39-1.23,0.93c0,0.56,0.42,0.82,1.53,1.23c1.6,0.56,2.33,1.38,2.34,2.67c0,1.6-1.25,2.75-3.56,2.75
			c-1.06,0-2.03-0.25-2.67-0.61L103.12,269.96z"/>
		<path class="st5" d="M113.08,260.78c0,0.66-0.48,1.2-1.26,1.2c-0.73,0-1.22-0.53-1.21-1.2c0-0.68,0.5-1.2,1.24-1.2
			C112.59,259.58,113.07,260.09,113.08,260.78z M110.73,271.99v-8.77h2.22v8.77H110.73z"/>
		<path class="st5" d="M121.77,271.73c-0.46,0.22-1.37,0.45-2.47,0.45c-2.75,0-4.52-1.76-4.52-4.48c0-2.62,1.79-4.66,4.88-4.66
			c0.82,0,1.63,0.18,2.14,0.4l-0.39,1.67c-0.36-0.17-0.89-0.34-1.68-0.34c-1.69,0-2.69,1.24-2.68,2.84c0,1.8,1.18,2.83,2.69,2.83
			c0.76,0,1.31-0.16,1.74-0.35L121.77,271.73z"/>
		<path class="st5" d="M123.31,269.96c0.49,0.3,1.44,0.64,2.24,0.64c0.98,0,1.41-0.41,1.41-0.98c0-0.59-0.36-0.9-1.44-1.28
			c-1.72-0.59-2.43-1.52-2.42-2.56c0-1.54,1.28-2.74,3.33-2.74c0.97,0,1.81,0.24,2.32,0.52l-0.44,1.56c-0.37-0.21-1.08-0.5-1.85-0.5
			c-0.79,0-1.23,0.39-1.23,0.93c0,0.56,0.42,0.82,1.53,1.23c1.6,0.56,2.33,1.38,2.34,2.67c0,1.6-1.25,2.75-3.56,2.75
			c-1.06,0-2.03-0.25-2.67-0.61L123.31,269.96z"/>
	</g>
</g>
</svg>
