<svg width="126" height="114" viewBox="0 0 126 114" fill="none" xmlns="http://www.w3.org/2000/svg">
  <style>
    #aptamer, 
    #molecule{
        animation: moving 2s ease-in-out infinite;
        
    }
    
    @keyframes moving{
        from{
            transform: rotateX('0deg');
        }
        to{
            transform: rotateX('30deg');
        }
    }
  </style>
<g id="Lab_Icon 1">
<g id="chip">
<g id="Group">
<g id="Group_2">
<path id="Vector" d="M71.99 107.07C70.57 107.07 69.23 106.79 68.09 106.25L20.74 83.79C19.09 83.01 18.03 81.77 17.76 80.31C17.48 78.84 18.03 77.29 19.29 75.95L55.38 37.69C57.1 35.86 59.94 34.73 62.78 34.73C64.2 34.73 65.54 35.01 66.68 35.55L114.03 58C115.68 58.78 116.74 60.02 117.01 61.48C117.29 62.95 116.74 64.5 115.48 65.84L79.39 104.1C77.67 105.93 74.83 107.07 71.99 107.07Z" fill="#16558C"/>
<path id="Vector_2" d="M62.79 35.22C64.13 35.22 65.4 35.49 66.47 35.99L113.82 58.45C115.32 59.16 116.28 60.27 116.52 61.57C116.77 62.88 116.27 64.28 115.12 65.5L79.03 103.76C77.4 105.49 74.7 106.56 71.99 106.56C70.65 106.56 69.38 106.29 68.31 105.79L20.96 83.33C19.46 82.62 18.5 81.51 18.26 80.21C18.01 78.9 18.51 77.5 19.66 76.28L55.75 38.02C57.38 36.3 60.08 35.22 62.79 35.22ZM62.78 34.22C59.9 34.22 56.91 35.34 55.02 37.34L18.93 75.6C16.09 78.61 16.81 82.47 20.53 84.24L67.88 106.7C69.12 107.29 70.54 107.57 71.99 107.57C74.87 107.57 77.86 106.45 79.75 104.45L115.84 66.19C118.68 63.18 117.96 59.32 114.24 57.55L66.89 35.09C65.65 34.5 64.23 34.22 62.78 34.22Z" fill="black"/>
</g>
<g id="Group_3">
<path id="Vector_3" d="M70.71 102.99C69.29 102.99 67.95 102.71 66.81 102.17L19.46 79.71C17.81 78.93 16.75 77.69 16.48 76.23C16.2 74.76 16.75 73.21 18.01 71.87L54.1 33.61C55.82 31.78 58.66 30.65 61.5 30.65C62.92 30.65 64.26 30.93 65.4 31.47L112.75 53.93C114.4 54.71 115.46 55.95 115.73 57.41C116.01 58.88 115.46 60.43 114.2 61.77L78.11 100.03C76.39 101.86 73.55 102.99 70.71 102.99Z" fill="#8BAAC6"/>
<path id="Vector_4" d="M61.5 31.15C62.84 31.15 64.11 31.42 65.18 31.92L112.53 54.38C114.03 55.09 114.99 56.2 115.23 57.5C115.48 58.81 114.98 60.21 113.83 61.43L77.74 99.69C76.11 101.42 73.41 102.49 70.7 102.49C69.36 102.49 68.09 102.22 67.02 101.72L19.67 79.26C18.17 78.55 17.21 77.44 16.97 76.14C16.72 74.83 17.22 73.43 18.37 72.21L54.46 33.95C56.1 32.22 58.8 31.15 61.5 31.15ZM61.5 30.15C58.62 30.15 55.63 31.27 53.74 33.27L17.65 71.53C14.81 74.54 15.53 78.4 19.25 80.17L66.6 102.63C67.84 103.22 69.26 103.5 70.71 103.5C73.59 103.5 76.58 102.38 78.47 100.38L114.56 62.12C117.4 59.11 116.68 55.25 112.96 53.48L65.61 31.02C64.37 30.43 62.95 30.15 61.5 30.15Z" fill="black"/>
</g>
<g id="Group_4">
<path id="Vector_5" d="M69.43 98.92C68.01 98.92 66.67 98.64 65.53 98.1L18.18 75.64C16.53 74.86 15.47 73.62 15.2 72.16C14.92 70.69 15.47 69.14 16.73 67.8L52.82 29.54C54.54 27.71 57.38 26.58 60.22 26.58C61.64 26.58 62.98 26.86 64.12 27.4L111.47 49.86C113.12 50.64 114.18 51.88 114.45 53.34C114.73 54.81 114.18 56.36 112.92 57.7L76.83 95.96C75.11 97.79 72.27 98.92 69.43 98.92Z" fill="white"/>
<path id="Vector_6" d="M60.22 27.08C61.56 27.08 62.83 27.35 63.9 27.85L111.25 50.31C112.75 51.02 113.71 52.13 113.95 53.43C114.2 54.74 113.7 56.14 112.55 57.36L76.46 95.62C74.83 97.35 72.13 98.42 69.42 98.42C68.08 98.42 66.81 98.15 65.74 97.65L18.39 75.19C16.89 74.48 15.93 73.37 15.69 72.07C15.44 70.76 15.94 69.36 17.09 68.14L53.18 29.88C54.82 28.15 57.51 27.08 60.22 27.08ZM60.22 26.08C57.34 26.08 54.35 27.2 52.46 29.2L16.37 67.46C13.53 70.47 14.25 74.33 17.97 76.1L65.32 98.56C66.56 99.15 67.98 99.43 69.43 99.43C72.31 99.43 75.3 98.31 77.19 96.31L113.28 58.05C116.12 55.04 115.4 51.18 111.68 49.41L64.33 26.95C63.09 26.36 61.67 26.08 60.22 26.08Z" fill="black"/>
</g>
</g>
<path id="Vector_7" d="M102 56.5C102.828 56.5 103.5 55.8284 103.5 55C103.5 54.1716 102.828 53.5 102 53.5C101.172 53.5 100.5 54.1716 100.5 55C100.5 55.8284 101.172 56.5 102 56.5Z" fill="#E8D066" stroke="black" stroke-miterlimit="10"/>
<path id="Vector_8" d="M27 72.5C27.8284 72.5 28.5 71.8284 28.5 71C28.5 70.1716 27.8284 69.5 27 69.5C26.1716 69.5 25.5 70.1716 25.5 71C25.5 71.8284 26.1716 72.5 27 72.5Z" fill="#E8C274" stroke="black" stroke-miterlimit="10"/>
<path id="Vector_9" d="M89 50.5C89.8284 50.5 90.5 49.8284 90.5 49C90.5 48.1716 89.8284 47.5 89 47.5C88.1716 47.5 87.5 48.1716 87.5 49C87.5 49.8284 88.1716 50.5 89 50.5Z" fill="#E8D066" stroke="black" stroke-miterlimit="10"/>
<path id="Vector_10" d="M66.34 78.06L44.16 66.63L61.52 45.87L83.71 57.3L66.34 78.06Z" fill="#E8D066" stroke="black" stroke-miterlimit="10"/>
<path id="Vector_11" d="M62.57 66.34L59.79 64.85C58.37 64.09 58.03 62.42 59.05 61.13L61.03 58.61C62.04 57.32 64.02 56.89 65.44 57.66L68.22 59.15C69.64 59.91 69.98 61.58 68.96 62.87L66.98 65.39C65.97 66.67 63.99 67.1 62.57 66.34Z" fill="#FFF16C" stroke="black" stroke-miterlimit="10"/>
<path id="Vector_12" d="M40 79.5C40.8284 79.5 41.5 78.8284 41.5 78C41.5 77.1716 40.8284 76.5 40 76.5C39.1716 76.5 38.5 77.1716 38.5 78C38.5 78.8284 39.1716 79.5 40 79.5Z" fill="#E8D066" stroke="black" stroke-miterlimit="10"/>
<path id="Vector_13" d="M54 86.5C54.8284 86.5 55.5 85.8284 55.5 85C55.5 84.1716 54.8284 83.5 54 83.5C53.1716 83.5 52.5 84.1716 52.5 85C52.5 85.8284 53.1716 86.5 54 86.5Z" fill="#E8D066" stroke="black" stroke-miterlimit="10"/>
<path id="Vector_14" d="M67 92.5C67.8284 92.5 68.5 91.8284 68.5 91C68.5 90.1716 67.8284 89.5 67 89.5C66.1716 89.5 65.5 90.1716 65.5 91C65.5 91.8284 66.1716 92.5 67 92.5Z" fill="#E8D066" stroke="black" stroke-miterlimit="10"/>
<path id="Vector_15" d="M40.96 76.86L47.58 68.39" stroke="black" stroke-miterlimit="10"/>
<path id="Vector_16" d="M28.5 69.5L32.5 65.5L50.5 74.5L53.24 71.31" stroke="black" stroke-miterlimit="10"/>
<path id="Vector_17" d="M54.79 83.5L58.46 78.84L50.5 74.5" stroke="black" stroke-miterlimit="10"/>
<path id="Vector_18" d="M68.5 89.5L69.54 88.15L58.46 82.9L63.32 76.5" stroke="black" stroke-miterlimit="10"/>
<path id="Vector_19" d="M80 80.5C80.8284 80.5 81.5 79.8284 81.5 79C81.5 78.1716 80.8284 77.5 80 77.5C79.1716 77.5 78.5 78.1716 78.5 79C78.5 79.8284 79.1716 80.5 80 80.5Z" fill="#E8D066" stroke="black" stroke-miterlimit="10"/>
<path id="Vector_20" d="M91 68.5C91.8284 68.5 92.5 67.8284 92.5 67C92.5 66.1716 91.8284 65.5 91 65.5C90.1716 65.5 89.5 66.1716 89.5 67C89.5 67.8284 90.1716 68.5 91 68.5Z" fill="#E8D066" stroke="black" stroke-miterlimit="10"/>
<path id="Vector_21" d="M100.5 53.5L98.5 52.5L94.83 53L75.5 76.5L78.5 78" stroke="black" stroke-miterlimit="10"/>
<path id="Vector_22" d="M90 66L80.28 61.4" stroke="black" stroke-miterlimit="10"/>
<path id="Vector_23" d="M88 50.11L85.14 53.5L91.95 56.5" stroke="black" stroke-miterlimit="10"/>
</g>
<g id="aptamer">
<path id="Vector_24" d="M66.29 63.5C66.3 55.64 66.29 52.47 67.48 47.75C69.03 41.59 71.18 37.94 73.42 32C75.8 25.7 75.24 22.43 73.42 17.82C70.93 11.52 65.18 10.23 63.92 9.94C62.88 9.71 57.46 8.48999 53.23 13.09C52.24 14.17 49.88 16.73 49.67 20.97C49.45 25.28 51.61 28.27 52.05 28.85C54.44 32.01 57.44 32.01 57.99 32" stroke="black" stroke-width="0.75" stroke-miterlimit="10"/>
<path id="Vector_25" d="M63.07 61.87C63.08 54.01 63.07 50.84 64.26 46.12C65.81 39.96 67.96 36.31 70.2 30.37C72.58 24.07 72.02 20.8 70.2 16.19C67.71 9.89001 61.96 8.6 60.7 8.31C59.66 8.08 54.24 6.86001 50.01 11.46C49.02 12.54 46.66 15.1 46.45 19.34C46.23 23.65 48.39 26.64 48.83 27.22C51.22 30.38 54.22 30.38 54.77 30.37" stroke="black" stroke-width="2" stroke-miterlimit="10"/>
</g>
<g id="molecule">
<path id="Vector_26" d="M54.18 25.76C55.9363 25.76 57.36 24.2019 57.36 22.28C57.36 20.358 55.9363 18.8 54.18 18.8C52.4237 18.8 51 20.358 51 22.28C51 24.2019 52.4237 25.76 54.18 25.76Z" fill="#AEE5F2" stroke="#29ABE2" stroke-width="0.75" stroke-miterlimit="10"/>
<path id="Vector_27" d="M64.51 18.8C65.725 18.8 66.71 17.7255 66.71 16.4C66.71 15.0745 65.725 14 64.51 14C63.295 14 62.31 15.0745 62.31 16.4C62.31 17.7255 63.295 18.8 64.51 18.8Z" fill="#AEE5F2" stroke="#29ABE2" stroke-width="0.75" stroke-miterlimit="10"/>
<path id="Vector_28" d="M64.99 33C67.2047 33 69 31.039 69 28.62C69 26.201 67.2047 24.24 64.99 24.24C62.7753 24.24 60.98 26.201 60.98 28.62C60.98 31.039 62.7753 33 64.99 33Z" fill="#AEE5F2" stroke="#29ABE2" stroke-width="0.75" stroke-miterlimit="10"/>
<path id="Vector_29" d="M56.36 19.75L62.67 17.71" stroke="#29ABE2" stroke-width="0.75" stroke-miterlimit="10"/>
<path id="Vector_30" d="M65.02 18.73L64.99 24.23" stroke="#29ABE2" stroke-width="0.75" stroke-miterlimit="10"/>
<path id="Vector_31" d="M60.98 28.62L56.36 24.81" stroke="#29ABE2" stroke-width="0.75" stroke-miterlimit="10"/>
</g>
</g>
</svg>
