<?xml version="1.0" encoding="utf-8"?>
<!-- Generator: Adobe Illustrator 26.3.1, SVG Export Plug-In . SVG Version: 6.00 Build 0)  -->
<svg version="1.1" id="Layer_1" xmlns="http://www.w3.org/2000/svg" xmlns:xlink="http://www.w3.org/1999/xlink" x="0px" y="0px"
	 viewBox="0 0 960 560" style="enable-background:new 0 0 960 560;" xml:space="preserve">
<style type="text/css">
	.st0{fill:#16558C;}
	.st1{fill:#8BAAC6;}
	.st2{fill:#FFFFFF;}
	.st3{fill:#E8D066;stroke:#000000;stroke-miterlimit:10;}
	.st4{fill:#E8C274;stroke:#000000;stroke-miterlimit:10;}
	.st5{fill:#FFF16C;stroke:#000000;stroke-miterlimit:10;}
	.st6{fill:none;stroke:#000000;stroke-miterlimit:10;}
	.st7{fill:none;stroke:#000000;stroke-width:0.5;stroke-miterlimit:10;}
	.st8{fill:none;stroke:#000000;stroke-width:0.75;stroke-miterlimit:10;}
	.st9{fill:none;stroke:#000000;stroke-width:2;stroke-miterlimit:10;}
	.st10{fill:#AEE5F2;stroke:#29ABE2;stroke-width:0.75;stroke-miterlimit:10;}
</style>
<g>
	<g>
		<path class="st0" d="M350.99,280.07c-1.42,0-2.76-0.28-3.9-0.82l-47.35-22.46c-1.65-0.78-2.71-2.02-2.98-3.48
			c-0.28-1.47,0.27-3.02,1.53-4.36l36.09-38.26c1.72-1.83,4.56-2.96,7.4-2.96c1.42,0,2.76,0.28,3.9,0.82L393.03,231
			c1.65,0.78,2.71,2.02,2.98,3.48c0.28,1.47-0.27,3.02-1.53,4.36l-36.09,38.26C356.67,278.93,353.83,280.07,350.99,280.07z"/>
		<path d="M341.79,208.22L341.79,208.22c1.34,0,2.61,0.27,3.68,0.77l47.35,22.46c1.5,0.71,2.46,1.82,2.7,3.12
			c0.25,1.31-0.25,2.71-1.4,3.93l-36.09,38.26c-1.63,1.73-4.33,2.8-7.04,2.8c-1.34,0-2.61-0.27-3.68-0.77l-47.35-22.46
			c-1.5-0.71-2.46-1.82-2.7-3.12c-0.25-1.31,0.25-2.71,1.4-3.93l36.09-38.26C336.38,209.3,339.08,208.22,341.79,208.22
			 M341.78,207.22c-2.88,0-5.87,1.12-7.76,3.12l-36.09,38.26c-2.84,3.01-2.12,6.87,1.6,8.64l47.35,22.46
			c1.24,0.59,2.66,0.87,4.11,0.87c2.88,0,5.87-1.12,7.76-3.12l36.09-38.26c2.84-3.01,2.12-6.87-1.6-8.64l-47.35-22.46
			C344.65,207.5,343.23,207.22,341.78,207.22L341.78,207.22z"/>
	</g>
	<g>
		<path class="st1" d="M349.71,275.99c-1.42,0-2.76-0.28-3.9-0.82l-47.35-22.46c-1.65-0.78-2.71-2.02-2.98-3.48
			c-0.28-1.47,0.27-3.02,1.53-4.36l36.09-38.26c1.72-1.83,4.56-2.96,7.4-2.96c1.42,0,2.76,0.28,3.9,0.82l47.35,22.46
			c1.65,0.78,2.71,2.02,2.98,3.48c0.28,1.47-0.27,3.02-1.53,4.36l-36.09,38.26C355.39,274.86,352.55,275.99,349.71,275.99z"/>
		<path d="M340.5,204.15L340.5,204.15c1.34,0,2.61,0.27,3.68,0.77l47.35,22.46c1.5,0.71,2.46,1.82,2.7,3.12
			c0.25,1.31-0.25,2.71-1.4,3.93l-36.09,38.26c-1.63,1.73-4.33,2.8-7.04,2.8c-1.34,0-2.61-0.27-3.68-0.77l-47.35-22.46
			c-1.5-0.71-2.46-1.82-2.7-3.12c-0.25-1.31,0.25-2.71,1.4-3.93l36.09-38.26C335.1,205.22,337.8,204.15,340.5,204.15 M340.5,203.15
			c-2.88,0-5.87,1.12-7.76,3.12l-36.09,38.26c-2.84,3.01-2.12,6.87,1.6,8.64l47.35,22.46c1.24,0.59,2.66,0.87,4.11,0.87
			c2.88,0,5.87-1.12,7.76-3.12l36.09-38.26c2.84-3.01,2.12-6.87-1.6-8.64l-47.35-22.46C343.37,203.43,341.95,203.15,340.5,203.15
			L340.5,203.15z"/>
	</g>
	<g>
		<path class="st2" d="M348.43,271.92c-1.42,0-2.76-0.28-3.9-0.82l-47.35-22.46c-1.65-0.78-2.71-2.02-2.98-3.48
			c-0.28-1.47,0.27-3.02,1.53-4.36l36.09-38.26c1.72-1.83,4.56-2.96,7.4-2.96c1.42,0,2.76,0.28,3.9,0.82l47.35,22.46
			c1.65,0.78,2.71,2.02,2.98,3.48c0.28,1.47-0.27,3.02-1.53,4.36l-36.09,38.26C354.11,270.79,351.27,271.92,348.43,271.92z"/>
		<path d="M339.22,200.08L339.22,200.08c1.34,0,2.61,0.27,3.68,0.77l47.35,22.46c1.5,0.71,2.46,1.82,2.7,3.12
			c0.25,1.31-0.25,2.71-1.4,3.93l-36.09,38.26c-1.63,1.73-4.33,2.8-7.04,2.8c-1.34,0-2.61-0.27-3.68-0.77l-47.35-22.46
			c-1.5-0.71-2.46-1.82-2.7-3.12c-0.25-1.31,0.25-2.71,1.4-3.93l36.09-38.26C333.82,201.15,336.51,200.08,339.22,200.08
			 M339.22,199.08c-2.88,0-5.87,1.12-7.76,3.12l-36.09,38.26c-2.84,3.01-2.12,6.87,1.6,8.64l47.35,22.46
			c1.24,0.59,2.66,0.87,4.11,0.87c2.88,0,5.87-1.12,7.76-3.12l36.09-38.26c2.84-3.01,2.12-6.87-1.6-8.64l-47.35-22.46
			C342.09,199.36,340.67,199.08,339.22,199.08L339.22,199.08z"/>
	</g>
</g>
<circle class="st3" cx="381" cy="228" r="1.5"/>
<circle class="st4" cx="306" cy="244" r="1.5"/>
<circle class="st3" cx="368" cy="222" r="1.5"/>
<polygon class="st3" points="345.34,251.06 323.16,239.63 340.52,218.87 362.71,230.3 "/>
<path class="st5" d="M341.57,239.34l-2.78-1.49c-1.42-0.76-1.76-2.43-0.74-3.72l1.98-2.52c1.01-1.29,2.99-1.72,4.41-0.95l2.78,1.49
	c1.42,0.76,1.76,2.43,0.74,3.72l-1.98,2.52C344.97,239.67,342.99,240.1,341.57,239.34z"/>
<circle class="st3" cx="319" cy="251" r="1.5"/>
<circle class="st3" cx="333" cy="258" r="1.5"/>
<circle class="st3" cx="346" cy="264" r="1.5"/>
<line class="st6" x1="319.96" y1="249.86" x2="326.58" y2="241.39"/>
<polyline class="st6" points="307.5,242.5 311.5,238.5 329.5,247.5 332.24,244.31 "/>
<polyline class="st6" points="333.79,256.5 337.46,251.84 329.5,247.5 "/>
<polyline class="st6" points="347.5,262.5 348.54,261.15 337.46,255.9 342.32,249.5 "/>
<path class="st7" d="M277.5,192.5"/>
<path class="st8" d="M345.29,236.5c0.01-7.86,0-11.03,1.19-15.75c1.55-6.16,3.7-9.81,5.94-15.75c2.38-6.3,1.82-9.57,0-14.18
	c-2.49-6.3-8.24-7.59-9.5-7.88c-1.04-0.23-6.46-1.45-10.69,3.15c-0.99,1.08-3.35,3.64-3.56,7.88c-0.22,4.31,1.94,7.3,2.38,7.88
	c2.39,3.16,5.39,3.16,5.94,3.15"/>
<path class="st9" d="M342.07,234.87c0.01-7.86,0-11.03,1.19-15.75c1.55-6.16,3.7-9.81,5.94-15.75c2.38-6.3,1.82-9.57,0-14.18
	c-2.49-6.3-8.24-7.59-9.5-7.88c-1.04-0.23-6.46-1.45-10.69,3.15c-0.99,1.08-3.35,3.64-3.56,7.88c-0.22,4.31,1.94,7.3,2.38,7.88
	c2.39,3.16,5.39,3.16,5.94,3.15"/>
<circle class="st3" cx="359" cy="252" r="1.5"/>
<circle class="st3" cx="370" cy="240" r="1.5"/>
<path class="st3" d="M343.83,258.91"/>
<polyline class="st6" points="379.5,226.5 377.5,225.5 373.83,226 354.5,249.5 357.5,251 "/>
<line class="st6" x1="369" y1="239" x2="359.28" y2="234.4"/>
<polyline class="st6" points="367,223.11 364.14,226.5 370.95,229.5 "/>
<g>
	<ellipse class="st10" cx="333.18" cy="195.28" rx="3.18" ry="3.48"/>
	<ellipse class="st10" cx="343.51" cy="189.4" rx="2.2" ry="2.4"/>
	<ellipse class="st10" cx="343.99" cy="201.62" rx="4.01" ry="4.38"/>
	<line class="st10" x1="335.36" y1="192.75" x2="341.67" y2="190.71"/>
	<line class="st10" x1="344.02" y1="191.73" x2="343.99" y2="197.23"/>
	<line class="st10" x1="339.98" y1="201.62" x2="335.36" y2="197.81"/>
</g>
</svg>
