<?xml version="1.0" encoding="utf-8"?>
<!-- Generator: Adobe Illustrator 26.3.1, SVG Export Plug-In . SVG Version: 6.00 Build 0)  -->
<svg version="1.1" id="Layer_1" xmlns="http://www.w3.org/2000/svg" xmlns:xlink="http://www.w3.org/1999/xlink" x="0px" y="0px"
	 viewBox="0 0 231.01 217.65" style="enable-background:new 0 0 231.01 217.65;" xml:space="preserve">
<style type="text/css">
	.st0{fill:#16558C;}
	.st1{fill:#7E9EB9;}
	.st2{fill:#E6E6E6;}
	.st3{fill:#E8D066;stroke:#000000;stroke-width:2;stroke-miterlimit:10;}
	.st4{fill:#E8C274;stroke:#000000;stroke-width:2;stroke-miterlimit:10;}
	.st5{fill:#FFF16C;stroke:#000000;stroke-width:2;stroke-miterlimit:10;}
	.st6{fill:none;stroke:#000000;stroke-width:2;stroke-miterlimit:10;}
	.st7{fill:none;stroke:#000000;stroke-width:0.5;stroke-miterlimit:10;}
	.st8{fill:none;stroke:#000000;stroke-width:1.5;stroke-miterlimit:10;}
	.st9{fill:none;stroke:#000000;stroke-width:4;stroke-miterlimit:10;}
	.st10{fill:#9BD9F2;stroke:#2E3192;stroke-width:1.5;stroke-miterlimit:10;}
</style>
<g>
	<g>
		<path class="st0" d="M126.73,211c-2.92,0-5.7-0.59-8.03-1.69l-97.49-46.25c-3.4-1.61-5.58-4.17-6.15-7.19
			c-0.57-3.04,0.55-6.24,3.15-9l74.31-78.77c3.55-3.77,9.4-6.1,15.26-6.1c2.92,0,5.7,0.59,8.03,1.69l97.49,46.24
			c3.4,1.61,5.58,4.17,6.15,7.2c0.57,3.04-0.55,6.24-3.15,9l-74.31,78.77C138.44,208.66,132.59,211,126.73,211z"/>
		<path d="M107.77,62.99L107.77,62.99c2.77,0,5.4,0.55,7.6,1.6l97.49,46.25c3.1,1.47,5.09,3.77,5.6,6.48
			c0.51,2.72-0.52,5.61-2.9,8.13l-74.31,78.77c-3.37,3.57-8.94,5.79-14.53,5.79c-2.77,0-5.4-0.55-7.6-1.6l-97.49-46.25
			c-3.1-1.47-5.09-3.77-5.6-6.48c-0.51-2.72,0.52-5.61,2.9-8.13l74.31-78.77C96.61,65.21,102.18,62.99,107.77,62.99 M107.77,60.99
			c-5.94,0-12.09,2.3-15.98,6.42l-74.31,78.77c-5.84,6.19-4.36,14.15,3.3,17.79l97.49,46.25c2.56,1.21,5.48,1.79,8.46,1.79
			c5.94,0,12.09-2.3,15.98-6.42l74.31-78.77c5.84-6.19,4.36-14.15-3.3-17.79l-97.49-46.25C113.68,61.57,110.75,60.99,107.77,60.99
			L107.77,60.99z"/>
	</g>
	<g>
		<path class="st1" d="M124.09,202.62c-2.92,0-5.7-0.59-8.03-1.69l-97.49-46.25c-3.4-1.61-5.58-4.17-6.15-7.19
			c-0.57-3.04,0.55-6.24,3.15-9l74.31-78.77c3.55-3.77,9.4-6.1,15.26-6.1c2.92,0,5.7,0.59,8.03,1.69l97.49,46.25
			c3.4,1.61,5.58,4.17,6.15,7.19c0.57,3.04-0.55,6.24-3.15,9l-74.31,78.77C135.8,200.28,129.95,202.62,124.09,202.62z"/>
		<path d="M105.14,54.6L105.14,54.6c2.77,0,5.4,0.55,7.6,1.6l97.49,46.25c3.1,1.47,5.09,3.77,5.6,6.48c0.51,2.72-0.52,5.61-2.9,8.13
			l-74.31,78.77c-3.37,3.57-8.94,5.79-14.53,5.79c-2.77,0-5.4-0.55-7.6-1.6L19,153.77c-3.1-1.47-5.09-3.77-5.6-6.48
			c-0.51-2.72,0.52-5.61,2.9-8.13L90.61,60.4C93.98,56.82,99.54,54.6,105.14,54.6 M105.14,52.6c-5.94,0-12.09,2.3-15.98,6.42
			l-74.31,78.77c-5.84,6.19-4.36,14.15,3.3,17.79l97.49,46.25c2.56,1.21,5.48,1.79,8.46,1.79c5.94,0,12.09-2.3,15.98-6.42
			l74.31-78.77c5.84-6.19,4.36-14.15-3.3-17.79L113.6,54.4C111.04,53.18,108.11,52.6,105.14,52.6L105.14,52.6z"/>
	</g>
	<g>
		<path class="st2" d="M121.46,194.23c-2.92,0-5.7-0.59-8.03-1.69l-97.49-46.25c-3.4-1.61-5.58-4.17-6.15-7.19
			c-0.57-3.04,0.55-6.24,3.15-9l74.31-78.77c3.55-3.77,9.4-6.1,15.26-6.1c2.92,0,5.7,0.59,8.03,1.69l97.49,46.25
			c3.4,1.61,5.58,4.17,6.15,7.19c0.57,3.04-0.55,6.24-3.15,9l-74.31,78.77C133.16,191.89,127.31,194.23,121.46,194.23z"/>
		<path d="M102.5,46.22L102.5,46.22c2.77,0,5.4,0.55,7.6,1.6l97.49,46.25c3.1,1.47,5.09,3.77,5.6,6.48c0.51,2.72-0.52,5.61-2.9,8.13
			l-74.31,78.77c-3.37,3.57-8.94,5.79-14.53,5.79c-2.77,0-5.4-0.55-7.6-1.6l-97.49-46.25c-3.1-1.47-5.09-3.77-5.6-6.48
			c-0.51-2.72,0.52-5.61,2.9-8.13l74.31-78.77C91.34,48.44,96.91,46.22,102.5,46.22 M102.5,44.22c-5.94,0-12.09,2.3-15.98,6.42
			l-74.31,78.77c-5.84,6.19-4.36,14.15,3.3,17.79L113,193.44c2.56,1.21,5.48,1.79,8.46,1.79c5.94,0,12.09-2.3,15.98-6.42
			l74.31-78.77c5.84-6.19,4.36-14.15-3.3-17.79l-97.49-46.25C108.4,44.8,105.48,44.22,102.5,44.22L102.5,44.22z"/>
	</g>
</g>
<circle class="st3" cx="188.51" cy="103.77" r="3.09"/>
<circle class="st4" cx="34.09" cy="136.71" r="3.09"/>
<circle class="st3" cx="161.75" cy="91.42" r="3.09"/>
<polygon class="st3" points="115.1,151.24 69.42,127.71 105.17,84.98 150.85,108.51 "/>
<path class="st5" d="M107.32,127.11l-5.72-3.06c-2.93-1.57-3.62-4.99-1.53-7.65l4.07-5.18c2.09-2.66,6.16-3.54,9.09-1.97l5.72,3.06
	c2.93,1.57,3.62,4.99,1.53,7.65l-4.07,5.18C114.32,127.8,110.25,128.68,107.32,127.11z"/>
<circle class="st3" cx="60.86" cy="151.13" r="3.09"/>
<circle class="st3" cx="89.69" cy="165.54" r="3.09"/>
<circle class="st3" cx="116.45" cy="177.89" r="3.09"/>
<line class="st6" x1="62.84" y1="148.77" x2="76.47" y2="131.34"/>
<polyline class="st6" points="37.18,133.63 45.42,125.39 82.48,143.92 88.12,137.35 "/>
<polyline class="st6" points="91.3,162.45 98.86,152.85 82.48,143.92 "/>
<polyline class="st6" points="119.54,174.8 121.69,172.02 98.86,161.21 108.88,148.04 "/>
<path class="st7" d="M-7.5,18.5"/>
<path class="st8" d="M114,121.27c0.01-16.19,0-22.7,2.45-32.43c3.19-12.68,7.61-20.19,12.23-32.43c4.89-12.97,3.75-19.7,0-29.19
	c-5.12-12.97-16.97-15.63-19.56-16.21c-2.14-0.48-13.3-2.99-22.01,6.49c-2.04,2.22-6.89,7.5-7.34,16.21
	c-0.45,8.88,3.99,15.03,4.89,16.21c4.92,6.5,11.1,6.51,12.23,6.49"/>
<path class="st9" d="M108.35,117.92c0.01-16.19,0-22.7,2.45-32.43c3.19-12.68,7.61-20.19,12.23-32.43c4.89-12.97,3.75-19.7,0-29.19
	C117.9,10.9,106.05,8.24,103.46,7.66c-2.14-0.48-13.3-2.99-22.01,6.49c-2.04,2.22-6.89,7.5-7.34,16.21
	c-0.45,8.88,3.99,15.03,4.89,16.21c4.92,6.5,11.1,6.51,12.23,6.49"/>
<circle class="st3" cx="143.22" cy="153.19" r="3.09"/>
<circle class="st3" cx="165.87" cy="128.48" r="3.09"/>
<path class="st3" d="M111.98,167.42"/>
<polyline class="st6" points="185.43,100.68 181.31,98.62 173.75,99.65 133.95,148.04 140.13,151.13 "/>
<line class="st6" x1="163.81" y1="126.42" x2="143.79" y2="116.94"/>
<polyline class="st6" points="159.69,93.7 153.8,100.68 167.82,106.86 "/>
<g>
	<ellipse class="st10" cx="89.06" cy="36.4" rx="6.55" ry="7.16"/>
	<ellipse class="st10" cx="110.32" cy="24.29" rx="4.52" ry="4.94"/>
	<ellipse class="st10" cx="111.31" cy="49.45" rx="8.26" ry="9.03"/>
	<line class="st10" x1="93.55" y1="31.2" x2="106.54" y2="26.99"/>
	<line class="st10" x1="111.38" y1="29.1" x2="111.31" y2="40.42"/>
	<line class="st10" x1="103.05" y1="49.45" x2="93.55" y2="41.62"/>
</g>
</svg>
